<?xml version="1.0" encoding="UTF-8"?>
<svg id="Layer_2" data-name="Layer 2" xmlns="http://www.w3.org/2000/svg" viewBox="0 0 207.67 95.69">
  <defs>
    <style>
      .cls-1 {
        fill: #ed2224;
      }

      .cls-1, .cls-2, .cls-3, .cls-4 {
        stroke-width: 0px;
      }

      .cls-1, .cls-3, .cls-4 {
        fill-rule: evenodd;
      }

      .cls-2 {
        fill: #fff;
      }

      .cls-3 {
        fill: #f4ec52;
      }

      .cls-4 {
        fill: #fdb94a;
      }
    </style>
  </defs>
  <g id="Layer_1-2" data-name="Layer 1">
    <g>
      <rect class="cls-2" x="95.23" y="10.09" width="73.84" height="73.84"/>
      <g>
        <path class="cls-1" d="m105.74,0h87.37c11.44,0,17.39,9.36,13.23,20.8l-19.69,54.09c-4.16,11.44-16.93,20.8-28.37,20.8h-87.37c-11.44,0-17.39-9.36-13.23-20.8l19.69-54.09C81.53,9.36,94.3,0,105.74,0h0Zm53.84,42.19l-14.83-10.84-14.83-10.84c-1.64-1.2-4.02-1.2-6.53,0-2.51,1.2-4.45,3.26-5.32,5.66l-7.89,21.68-7.89,21.68c-.87,2.4-.43,4.46,1.21,5.66,1.64,1.2,4.02,1.2,6.53,0l22.72-10.84,22.72-10.84c2.51-1.2,4.45-3.26,5.32-5.66.87-2.4.43-4.46-1.21-5.66h0Z"/>
        <g>
          <polygon class="cls-3" points="14.15 41.12 62.53 47.02 65.53 38.8 14.15 41.12"/>
          <polygon class="cls-1" points="21.04 21.93 69.42 27.83 72.41 19.61 21.04 21.93"/>
          <polygon class="cls-4" points="0 29.98 64.47 41.65 70.39 25.38 0 29.98"/>
        </g>
      </g>
    </g>
  </g>
</svg>