<?xml version="1.0" encoding="UTF-8"?>
<svg id="Layer_2" data-name="Layer 2" xmlns="http://www.w3.org/2000/svg" viewBox="0 0 154.13 16.93">
  <defs>
    <style>
      .cls-1 {
        fill: #fff;
      }

      .cls-2 {
        fill: #f4ec52;
      }

      .cls-2, .cls-3, .cls-4 {
        fill-rule: evenodd;
      }

      .cls-3 {
        fill: #ed2224;
      }

      .cls-4 {
        fill: #fdb94a;
      }
    </style>
  </defs>
  <g id="Layer_1-2" data-name="Layer 1">
    <g>
      <rect class="cls-1" x="16.77" y="2.17" width="12.34" height="12.34"/>
      <g>
        <path class="cls-1" d="M43.24,13.12V1.15h2.15l4.64,5.52,4.62-5.52h2.16v11.97h-1.81V3.56l-4.97,5.92-4.99-5.92v9.56h-1.8Z"/>
        <path class="cls-1" d="M59.66,12.82c-.32-.2-.58-.46-.78-.78-.2-.32-.3-.68-.3-1.08v-5.32c0-.4.1-.76.3-1.08.2-.32.46-.58.78-.78.32-.2.68-.3,1.08-.3h5.49c.4,0,.76.1,1.09.29s.59.46.78.79.29.69.29,1.08v3.56h-8.01v1.71c0,.11.04.21.12.29s.18.12.29.12h7.6v1.8h-7.65c-.4,0-.76-.1-1.08-.3ZM60.38,7.52h6.2v-1.83c0-.11-.04-.21-.12-.29-.08-.08-.17-.12-.28-.12h-5.39c-.11,0-.21.04-.29.12-.08.08-.12.18-.12.29v1.83Z"/>
        <path class="cls-1" d="M71.55,16.93v-1.81h5.9c.11,0,.21-.04.29-.12.08-.08.12-.18.12-.29v-1.58h-5.85c-.39,0-.75-.1-1.08-.29-.33-.19-.6-.46-.79-.79-.19-.33-.29-.69-.29-1.08v-5.32c0-.4.1-.76.3-1.08.2-.32.46-.58.79-.78.33-.2.68-.3,1.07-.3h5.49c.4,0,.76.1,1.09.3.33.2.59.46.78.78.19.32.29.68.29,1.08v9.13c0,.4-.1.76-.29,1.09-.19.33-.46.59-.78.78-.33.19-.69.29-1.09.29h-5.95ZM72.07,11.33h5.39c.11,0,.21-.04.29-.12.08-.08.12-.18.12-.29v-5.22c0-.11-.04-.21-.12-.29-.08-.08-.18-.12-.29-.12h-5.39c-.11,0-.21.04-.29.12-.08.08-.12.18-.12.29v5.22c0,.11.04.21.12.29.08.08.18.12.29.12Z"/>
        <path class="cls-1" d="M83.24,13.12c-.4,0-.76-.1-1.09-.3-.33-.2-.59-.46-.78-.78-.19-.32-.29-.68-.29-1.08v-3.56h8v-1.71c0-.11-.04-.21-.12-.29-.08-.08-.17-.12-.28-.12h-7.6v-1.8h7.65c.4,0,.76.1,1.09.29s.59.46.78.79.29.69.29,1.08v7.48h-7.65ZM83.29,11.33h5.79v-2.24h-6.2v1.83c0,.11.04.21.12.29s.18.12.29.12Z"/>
        <path class="cls-1" d="M94.78,13.12c-.39,0-.75-.1-1.08-.29-.33-.19-.6-.45-.79-.78-.19-.33-.29-.69-.29-1.09v-.7h1.8v.65c0,.11.04.21.12.29s.18.12.29.12h7.55c.11,0,.21-.04.28-.12.08-.08.12-.18.12-.29v-2.46c0-.12-.04-.22-.12-.29-.08-.07-.17-.11-.28-.11h-7.6c-.39,0-.75-.1-1.08-.3-.33-.2-.6-.46-.79-.79-.19-.33-.29-.69-.29-1.09v-2.56c0-.4.1-.76.29-1.09.19-.33.46-.59.79-.78.33-.19.69-.29,1.08-.29h7.65c.39,0,.75.1,1.08.29.33.19.6.45.79.78.19.33.29.69.29,1.09v.7h-1.81v-.65c0-.11-.04-.21-.12-.29-.08-.08-.17-.12-.28-.12h-7.55c-.11,0-.21.04-.29.12-.08.08-.12.18-.12.29v2.46c0,.12.04.22.12.29s.18.11.29.11h7.6c.39,0,.75.1,1.08.3.33.2.6.46.79.79.19.33.29.69.29,1.09v2.56c0,.4-.1.76-.29,1.09-.19.33-.46.59-.79.78-.33.19-.69.29-1.08.29h-7.65Z"/>
        <path class="cls-1" d="M106.35,13.12V.32h1.8v3.16h5.85c.39,0,.75.1,1.07.3.33.2.59.46.79.78.2.32.3.68.3,1.08v7.48h-1.8v-7.43c0-.11-.04-.21-.12-.29-.08-.08-.18-.12-.29-.12h-5.39c-.11,0-.21.04-.29.12-.08.08-.12.18-.12.29v7.43h-1.8Z"/>
        <path class="cls-1" d="M118.49,12.82c-.32-.2-.58-.46-.78-.78-.2-.32-.3-.68-.3-1.08v-5.32c0-.4.1-.76.3-1.08.2-.32.46-.58.78-.78.32-.2.68-.3,1.08-.3h5.49c.4,0,.76.1,1.09.29s.59.46.78.79.29.69.29,1.08v5.32c0,.4-.1.76-.29,1.08s-.45.58-.78.78-.69.3-1.09.3h-5.49c-.4,0-.76-.1-1.08-.3ZM119.62,11.33h5.39c.11,0,.21-.04.28-.12s.12-.18.12-.29v-5.22c0-.11-.04-.21-.12-.29-.08-.08-.17-.12-.28-.12h-5.39c-.11,0-.21.04-.29.12-.08.08-.12.18-.12.29v5.22c0,.11.04.21.12.29s.18.12.29.12Z"/>
        <path class="cls-1" d="M128.66,13.12v-7.48c0-.4.1-.76.3-1.08.2-.32.46-.58.79-.78.33-.2.68-.3,1.07-.3h5.39v1.8h-5.34c-.11,0-.21.04-.29.12-.08.08-.12.18-.12.29v7.43h-1.8Z"/>
        <path class="cls-1" d="M138.35,12.82c-.33-.2-.59-.46-.78-.78-.19-.32-.29-.68-.29-1.08V.44h1.8v3.04h3.96v1.8h-3.96v5.64c0,.11.04.21.12.29s.18.12.29.12h3.54v1.8h-3.59c-.4,0-.76-.1-1.09-.3Z"/>
        <path class="cls-1" d="M145.4,12.82c-.32-.2-.58-.46-.78-.78-.2-.32-.3-.68-.3-1.08v-.25h1.8v.2c0,.11.04.21.12.29.08.08.18.12.29.12h5.39c.11,0,.21-.04.28-.12s.12-.18.12-.29v-1.3c0-.11-.04-.21-.12-.29-.08-.08-.17-.12-.28-.12h-5.44c-.4,0-.76-.1-1.08-.29-.32-.19-.58-.45-.78-.78-.2-.33-.3-.69-.3-1.09v-1.4c0-.4.1-.76.3-1.08.2-.32.46-.58.78-.78.32-.2.68-.3,1.08-.3h5.49c.4,0,.76.1,1.09.3.33.2.59.46.78.78.19.32.29.68.29,1.08v.25h-1.81v-.2c0-.11-.04-.21-.12-.29-.08-.08-.17-.12-.28-.12h-5.39c-.11,0-.21.04-.29.12-.08.08-.12.18-.12.29v1.3c0,.11.04.21.12.29.08.08.18.12.29.12h5.44c.4,0,.76.1,1.09.29s.59.45.78.78c.19.33.29.69.29,1.09v1.4c0,.4-.1.76-.29,1.08s-.45.58-.78.78-.69.3-1.09.3h-5.49c-.4,0-.76-.1-1.08-.3Z"/>
      </g>
      <g>
        <path class="cls-3" d="M18.44,0h15.24c2,0,3.03,1.63,2.31,3.63l-3.43,9.43c-.73,2-2.95,3.63-4.95,3.63h-15.24c-2,0-3.03-1.63-2.31-3.63l3.43-9.43c.73-2,2.95-3.63,4.95-3.63h0ZM27.83,7.36l-2.59-1.89-2.59-1.89c-.29-.21-.7-.21-1.14,0-.44.21-.78.57-.93.99l-1.38,3.78-1.38,3.78c-.15.42-.08.78.21.99.29.21.7.21,1.14,0l3.96-1.89,3.96-1.89c.44-.21.78-.57.93-.99s.08-.78-.21-.99h0Z"/>
        <g>
          <polygon class="cls-2" points="2.47 7.17 10.91 8.2 11.43 6.77 2.47 7.17"/>
          <polygon class="cls-3" points="3.67 3.82 12.11 4.85 12.63 3.42 3.67 3.82"/>
          <polygon class="cls-4" points="0 5.23 11.24 7.26 12.28 4.43 0 5.23"/>
        </g>
      </g>
    </g>
  </g>
</svg>